<svg width="134" height="24" viewBox="0 0 134 24" fill="none" xmlns="http://www.w3.org/2000/svg">
<g id="Layer 1">
<g id="Group">
<g id="Group_2">
<path id="Vector" d="M51.6551 13.2208C51.8775 14.3555 52.3982 15.2405 53.2173 15.8649C54.0363 16.4947 55.0506 16.8042 56.2548 16.8042C57.9309 16.8042 59.1513 16.1853 59.9107 14.9473L61.7928 16.0169C60.5561 17.9335 58.6957 18.8891 56.206 18.8891C54.1882 18.8891 52.5501 18.2593 51.2917 16.9943C50.0279 15.7292 49.3987 14.1329 49.3987 12.2C49.3987 10.2671 50.017 8.6926 51.2537 7.4221C52.4904 6.15161 54.0906 5.51636 56.0541 5.51636C57.9146 5.51636 59.4388 6.17332 60.6158 7.48725C61.7928 8.80119 62.3786 10.3812 62.3786 12.2272C62.3786 12.5475 62.3515 12.8787 62.3027 13.2208H51.6605H51.6551ZM56.0487 7.60127C54.8608 7.60127 53.879 7.9379 53.1034 8.60572C52.3223 9.27355 51.8395 10.1694 51.6551 11.2879H60.1385C59.9541 10.0825 59.4767 9.17039 58.7174 8.54057C57.9526 7.91618 57.0684 7.60127 56.0487 7.60127Z" fill="black"/>
<path id="Vector_2" d="M64.8358 19.3233V8.05718C64.8358 6.83555 65.823 5.84738 67.0434 5.84738V19.3233C67.0434 20.9684 66.6257 22.1847 65.8013 22.9719C64.9714 23.7592 63.7509 24.0958 62.1454 23.9764V21.8426C63.0783 21.9295 63.7564 21.772 64.1903 21.3865C64.6242 20.9956 64.8358 20.3115 64.8358 19.3287V19.3233ZM65.964 3.53443C65.5355 3.53443 65.1775 3.39326 64.89 3.10007C64.6025 2.81231 64.4561 2.46482 64.4561 2.05761C64.4561 1.6504 64.5971 1.29749 64.89 1.0043C65.1775 0.705678 65.5355 0.559082 65.9586 0.559082C66.3816 0.559082 66.7125 0.705678 67 1.0043C67.2875 1.30292 67.4339 1.6504 67.4339 2.05761C67.4339 2.46482 67.2766 2.84489 66.962 3.13808C66.6962 3.38783 66.3328 3.529 65.9694 3.53443H65.964Z" fill="black"/>
<path id="Vector_3" d="M80.5872 5.8475H82.7949V18.5579H80.5872V16.3698C79.4861 18.0475 77.886 18.8891 75.7869 18.8891C74.0077 18.8891 72.4944 18.243 71.2414 16.9453C69.9885 15.6477 69.3593 14.0677 69.3593 12.2054C69.3593 10.3431 69.983 8.75769 71.2414 7.46548C72.4944 6.16783 74.0077 5.52173 75.7869 5.52173C77.886 5.52173 79.4861 6.3633 80.5872 8.041V5.85293V5.8475ZM76.0635 16.7553C77.349 16.7553 78.423 16.3209 79.2909 15.4468C80.1533 14.5726 80.5872 13.4922 80.5872 12.2054C80.5872 10.9186 80.1533 9.83815 79.2909 8.96401C78.4284 8.08987 77.3544 7.65551 76.0635 7.65551C74.7725 7.65551 73.7257 8.08987 72.8633 8.96401C72.0008 9.83815 71.5669 10.9186 71.5669 12.2054C71.5669 13.4922 72.0008 14.5726 72.8633 15.4468C73.7257 16.3209 74.7942 16.7553 76.0635 16.7553Z" fill="black"/>
<path id="Vector_4" d="M101.525 18.5579V2.20979C101.525 0.988163 102.512 0 103.732 0V18.5579H101.525Z" fill="black"/>
<path id="Vector_5" d="M115.73 5.84747H117.938V18.5579H115.73V16.7281C114.83 18.1669 113.463 18.8891 111.613 18.8891C110.122 18.8891 108.928 18.4167 108.033 17.4774C107.138 16.5381 106.688 15.2622 106.688 13.6496V5.84204H108.896V13.5193C108.896 14.5509 109.172 15.3545 109.737 15.9246C110.295 16.4947 111.066 16.777 112.047 16.777C113.148 16.777 114.038 16.4349 114.716 15.7454C115.394 15.0613 115.73 14.0025 115.73 12.58V5.84204V5.84747Z" fill="black"/>
<path id="Vector_6" d="M122.624 13.2208C122.847 14.3555 123.368 15.2405 124.187 15.8649C125.006 16.4947 126.02 16.8042 127.224 16.8042C128.9 16.8042 130.121 16.1853 130.88 14.9473L132.762 16.0169C131.525 17.9335 129.665 18.8891 127.175 18.8891C125.158 18.8891 123.519 18.2593 122.261 16.9943C120.997 15.7292 120.368 14.1329 120.368 12.2C120.368 10.2671 120.986 8.6926 122.223 7.4221C123.46 6.15161 125.06 5.51636 127.023 5.51636C128.884 5.51636 130.408 6.17332 131.585 7.48725C132.762 8.80119 133.348 10.3812 133.348 12.2272C133.348 12.5475 133.321 12.8787 133.272 13.2208H122.63H122.624ZM127.018 7.60127C125.83 7.60127 124.848 7.9379 124.073 8.60572C123.292 9.27355 122.809 10.1694 122.624 11.2879H131.108C130.923 10.0825 130.446 9.17039 129.687 8.54057C128.922 7.91618 128.038 7.60127 127.018 7.60127Z" fill="black"/>
<path id="Vector_7" d="M47.1694 12.0263V0.629883C45.9489 0.629883 44.9617 1.61805 44.9617 2.83968V7.2104C43.7305 6.11364 42.0924 5.46211 40.297 5.53269C36.9015 5.66843 34.0918 8.49175 33.9724 11.8906C33.8368 15.6532 36.8418 18.748 40.5736 18.748C44.3054 18.748 47.1748 15.789 47.1748 12.1404C47.1748 12.1023 47.1748 12.0643 47.1694 12.0263ZM40.4597 16.7174C37.8019 16.7174 35.6756 14.4099 35.9848 11.6843C36.2126 9.63737 37.8778 7.95966 39.9227 7.7262C42.6131 7.41672 44.8967 9.47991 44.9617 12.0915V12.1349C44.9617 12.1349 44.9617 12.1784 44.9617 12.2001C44.9617 14.6922 42.944 16.712 40.4543 16.712L40.4597 16.7174Z" fill="black"/>
<path id="Vector_8" d="M85.8055 12.1404C85.8055 15.8759 88.9027 18.8892 92.6671 18.7481C96.068 18.6178 98.8831 15.7999 99.0133 12.3956C99.1543 8.62755 96.1439 5.52189 92.4121 5.52189C90.7252 5.52189 89.1902 6.16257 88.0186 7.20503V0.624512C86.7982 0.624512 85.811 1.61267 85.811 2.8343V12.0264C85.811 12.0644 85.8055 12.1024 85.8055 12.1404ZM88.0132 12.211C88.0132 12.211 88.0132 12.1676 88.0132 12.1404V12.097C88.0783 9.47997 90.3618 7.41677 93.0522 7.72625C95.0971 7.96515 96.7623 9.63743 96.9955 11.6898C97.2993 14.4154 95.1785 16.7229 92.5152 16.7229C90.0255 16.7229 88.0077 14.7031 88.0077 12.211H88.0132Z" fill="black"/>
</g>
<path id="Vector_9" d="M15.3187 23.9548C21.9036 23.9548 27.2627 18.5905 27.2627 11.9991C27.2627 5.40777 21.9036 0.043457 15.3187 0.043457H0.651855V1.55828C0.651855 5.44035 3.80871 8.6003 7.68697 8.6003H15.3187C17.1901 8.6003 18.7142 10.126 18.7142 11.9991C18.7142 13.8723 17.1901 15.398 15.3187 15.398C13.4474 15.398 11.9232 13.8723 11.9232 11.9991C11.9232 11.163 11.2452 10.4843 10.4099 10.4843C9.57457 10.4843 8.89655 11.163 8.89655 11.9991C8.89655 15.5446 11.7768 18.4276 15.3187 18.4276C18.8607 18.4276 21.7409 15.5446 21.7409 11.9991C21.7409 8.4537 18.8607 5.57065 15.3187 5.57065H7.68697C6.14651 5.57065 4.72538 4.66936 4.06364 3.26856L3.97143 3.07853H15.3187C20.233 3.07853 24.236 7.08005 24.236 12.0046C24.236 16.9291 20.2384 20.9306 15.3187 20.9306C14.4834 20.9306 13.8054 21.6093 13.8054 22.4454C13.8054 23.2816 14.4834 23.9603 15.3187 23.9603V23.9548Z" fill="url(#paint0_linear_3160_2794)"/>
</g>
</g>
<defs>
<linearGradient id="paint0_linear_3160_2794" x1="0.292252" y1="5.22349" x2="27.0348" y2="15.8828" gradientUnits="userSpaceOnUse">
<stop stop-color="#6B78EF"/>
<stop offset="0.53125" stop-color="#3849EA"/>
<stop offset="1" stop-color="#172ADD"/>
</linearGradient>
</defs>
</svg>
